HIERARCHY
ROOT reference
{
  OFFSET -65.3212 -1.93545 -120.338
  CHANNELS 6 Xposition Yposition Zposition Zrotation Xrotation Yrotation
  JOINT Hips
  {
    OFFSET 0 78.7191 0
    CHANNELS 3 Zrotation Xrotation Yrotation
    JOINT Chest
    {
      OFFSET 0 8.7983 -4.7612
      CHANNELS 3 Zrotation Xrotation Yrotation
      JOINT Chest2
      {
        OFFSET 0 8.0291 0.4195
        CHANNELS 3 Zrotation Xrotation Yrotation
        JOINT Chest3
        {
          OFFSET 0 9.9351 -2.2114
          CHANNELS 3 Zrotation Xrotation Yrotation
          JOINT Neck
          {
            OFFSET 0 22.3885 -0.4656
            CHANNELS 3 Zrotation Xrotation Yrotation
            JOINT Head
            {
              OFFSET -0.0001 12.643 3.4389
              CHANNELS 3 Zrotation Xrotation Yrotation
              End Site
              {
                OFFSET 0.0001 17.6655 0.5274
              }
            }
          }
          JOINT LeftCollar
          {
            OFFSET 2.2603 21.606 7.4023
            CHANNELS 3 Zrotation Xrotation Yrotation
            JOINT LeftShoulder
            {
              OFFSET 13.5163 -1.1332 -5.0146
              CHANNELS 3 Zrotation Xrotation Yrotation
              JOINT LeftElbow
              {
                OFFSET -0.0995 -28.05 -0.2431
                CHANNELS 3 Zrotation Xrotation Yrotation
                JOINT LeftWrist
                {
                  OFFSET 0.0679 -23.3996 -0.1402
                  CHANNELS 3 Zrotation Xrotation Yrotation
                  JOINT LeftFinger1
                  {
                    OFFSET 0.7932 -9.069 2.5189
                    CHANNELS 3 Zrotation Xrotation Yrotation
                    JOINT LeftFinger11
                    {
                      OFFSET -0.8272 -3.3923 0.5977
                      CHANNELS 3 Zrotation Xrotation Yrotation
                      JOINT LeftFinger12
                      {
                        OFFSET -0.5649 -2.3158 0.4082
                        CHANNELS 3 Zrotation Xrotation Yrotation
                        End Site
                        {
                          OFFSET -0.4919 -1.6479 0.2673
                        }
                      }
                    }
                  }
                  JOINT LeftFinger2
                  {
                    OFFSET 0.9159 -9.2044 0.2193
                    CHANNELS 3 Zrotation Xrotation Yrotation
                    JOINT LeftFinger21
                    {
                      OFFSET 0.0117 -4.1944 -0.0248
                      CHANNELS 3 Zrotation Xrotation Yrotation
                      JOINT LeftFinger22
                      {
                        OFFSET 0.0071 -2.3249 -0.0142
                        CHANNELS 3 Zrotation Xrotation Yrotation
                        End Site
                        {
                          OFFSET -0.1475 -2.0882 0.0028
                        }
                      }
                    }
                  }
                  JOINT LeftFinger3
                  {
                    OFFSET 0.6113 -8.7231 -2.0637
                    CHANNELS 3 Zrotation Xrotation Yrotation
                    JOINT LeftFinger31
                    {
                      OFFSET -0.1927 -3.8059 -0.2383
                      CHANNELS 3 Zrotation Xrotation Yrotation
                      JOINT LeftFinger32
                      {
                        OFFSET -0.1091 -2.1688 -0.1362
                        CHANNELS 3 Zrotation Xrotation Yrotation
                        End Site
                        {
                          OFFSET -0.2358 -1.9176 -0.0906
                        }
                      }
                    }
                  }
                  JOINT LeftFinger4
                  {
                    OFFSET -0.6151 -8.0947 -3.5641
                    CHANNELS 3 Zrotation Xrotation Yrotation
                    JOINT LeftFinger41
                    {
                      OFFSET -0.4882 -2.341 -0.6462
                      CHANNELS 3 Zrotation Xrotation Yrotation
                      JOINT LeftFinger42
                      {
                        OFFSET -0.3575 -1.7167 -0.4742
                        CHANNELS 3 Zrotation Xrotation Yrotation
                        End Site
                        {
                          OFFSET -0.4187 -1.5237 -0.3496
                        }
                      }
                    }
                  }
                  JOINT LeftFinger0
                  {
                    OFFSET -1.42 -1.8761 1.4223
                    CHANNELS 3 Zrotation Xrotation Yrotation
                    JOINT LeftFinger01
                    {
                      OFFSET -1.1471 -3.4929 2.6334
                      CHANNELS 3 Zrotation Xrotation Yrotation
                      JOINT LeftFinger02
                      {
                        OFFSET -0.823 -2.3 1.6571
                        CHANNELS 3 Zrotation Xrotation Yrotation
                        End Site
                        {
                          OFFSET -0.5822 -1.6914 1.1582
                        }
                      }
                    }
                  }
                }
              }
            }
          }
          JOINT RightCollar
          {
            OFFSET -2.2603 21.606 7.4023
            CHANNELS 3 Zrotation Xrotation Yrotation
            JOINT RightShoulder
            {
              OFFSET -13.5187 -1.1334 -5.0155
              CHANNELS 3 Zrotation Xrotation Yrotation
              JOINT RightElbow
              {
                OFFSET 0.0994 -28.0499 -0.2431
                CHANNELS 3 Zrotation Xrotation Yrotation
                JOINT RightWrist
                {
                  OFFSET -0.0679 -23.3996 -0.1402
                  CHANNELS 3 Zrotation Xrotation Yrotation
                  JOINT RightFinger1
                  {
                    OFFSET -0.7932 -9.0691 2.5189
                    CHANNELS 3 Zrotation Xrotation Yrotation
                    JOINT RightFinger11
                    {
                      OFFSET 0.8272 -3.3923 0.5977
                      CHANNELS 3 Zrotation Xrotation Yrotation
                      JOINT RightFinger12
                      {
                        OFFSET 0.565 -2.3158 0.4082
                        CHANNELS 3 Zrotation Xrotation Yrotation
                        End Site
                        {
                          OFFSET 0.4919 -1.6479 0.2673
                        }
                      }
                    }
                  }
                  JOINT RightFinger2
                  {
                    OFFSET -0.916 -9.2044 0.2193
                    CHANNELS 3 Zrotation Xrotation Yrotation
                    JOINT RightFinger21
                    {
                      OFFSET -0.0117 -4.1944 -0.0248
                      CHANNELS 3 Zrotation Xrotation Yrotation
                      JOINT RightFinger22
                      {
                        OFFSET -0.0071 -2.3249 -0.0142
                        CHANNELS 3 Zrotation Xrotation Yrotation
                        End Site
                        {
                          OFFSET 0.1475 -2.0882 0.0028
                        }
                      }
                    }
                  }
                  JOINT RightFinger3
                  {
                    OFFSET -0.6113 -8.7231 -2.0637
                    CHANNELS 3 Zrotation Xrotation Yrotation
                    JOINT RightFinger31
                    {
                      OFFSET 0.1927 -3.8059 -0.2383
                      CHANNELS 3 Zrotation Xrotation Yrotation
                      JOINT RightFinger32
                      {
                        OFFSET 0.1091 -2.1688 -0.1362
                        CHANNELS 3 Zrotation Xrotation Yrotation
                        End Site
                        {
                          OFFSET 0.2358 -1.9176 -0.0906
                        }
                      }
                    }
                  }
                  JOINT RightFinger4
                  {
                    OFFSET 0.6151 -8.0947 -3.564
                    CHANNELS 3 Zrotation Xrotation Yrotation
                    JOINT RightFinger41
                    {
                      OFFSET 0.4882 -2.341 -0.6462
                      CHANNELS 3 Zrotation Xrotation Yrotation
                      JOINT RightFinger42
                      {
                        OFFSET 0.3574 -1.7166 -0.4742
                        CHANNELS 3 Zrotation Xrotation Yrotation
                        End Site
                        {
                          OFFSET 0.4187 -1.5237 -0.3496
                        }
                      }
                    }
                  }
                  JOINT RightFinger0
                  {
                    OFFSET 1.4199 -1.8761 1.4221
                    CHANNELS 3 Zrotation Xrotation Yrotation
                    JOINT RightFinger01
                    {
                      OFFSET 1.1472 -3.4929 2.6336
                      CHANNELS 3 Zrotation Xrotation Yrotation
                      JOINT RightFinger02
                      {
                        OFFSET 0.8229 -2.3 1.6571
                        CHANNELS 3 Zrotation Xrotation Yrotation
                        End Site
                        {
                          OFFSET 0.5822 -1.6914 1.1582
                        }
                      }
                    }
                  }
                }
              }
            }
          }
        }
      }
    }
    JOINT RightHip
    {
      OFFSET -9.412 3.9771 -0.7758
      CHANNELS 3 Zrotation Xrotation Yrotation
      JOINT RightKnee
      {
        OFFSET -0.7531 -40.938 0
        CHANNELS 3 Zrotation Xrotation Yrotation
        JOINT RightAnkle
        {
          OFFSET 0 -40.1986 0
          CHANNELS 3 Zrotation Xrotation Yrotation
          JOINT RightToe
          {
            OFFSET 0 -4.4182 9.239
            CHANNELS 3 Zrotation Xrotation Yrotation
            End Site
            {
              OFFSET 0 0 6.1981
            }
          }
        }
      }
    }
    JOINT LeftHip
    {
      OFFSET 9.4119 3.9773 -0.7758
      CHANNELS 3 Zrotation Xrotation Yrotation
      JOINT LeftKnee
      {
        OFFSET 0.7532 -40.9383 0
        CHANNELS 3 Zrotation Xrotation Yrotation
        JOINT LeftAnkle
        {
          OFFSET 0 -40.1986 0
          CHANNELS 3 Zrotation Xrotation Yrotation
          JOINT LeftToe
          {
            OFFSET 0 -4.4182 9.239
            CHANNELS 3 Zrotation Xrotation Yrotation
            End Site
            {
              OFFSET 0 0 6.1981
            }
          }
        }
      }
    }
  }
}
MOTION
Frames:	8
Frame Time:	0.0333333
21.4526 -65.5352 -49.243 0 0 -0 12.8006 10.1769 -55.1353 -0.153259 -2.78444 1.52612 -0.232529 -5.57196 3.05017 -0.23253 -5.57196 3.05018 0.173859 0.714316 -4.39528 6.57727 -0.317224 -2.25099 2.95827 -2.02173 -30.3029 43.4323 -43.8666 23.0181 -4.49621 -59.5045 15.8812 5.78247 7.85911 22.7946 -3.03455 13.5333 -2.18209 -35.3167 20.4568 4.66826 -36.389 20.9688 4.99578 -1.00372 1.77406 1.17351 -42.7841 24.7472 5.54516 -8.91324 5.6288 -0.442294 -6.58202 6.72805 5.06492 -13.8829 9.68233 -0.672504 -15.2683 10.6412 -0.610637 13.8075 -0.976069 8.79336 -17.7367 12.2751 -1.06118 -8.75065 6.03021 -1.00087 -11.5752 -16.7454 -49.4479 -4.53232 0.274121 0.312987 8.53293 10.6973 -3.07913 -7.76049 -1.36613 37.8347 -87.5674 -41.956 -55.0619 36.0998 -47.5411 8.90723 -32.5154 17.443 -44.0091 11.6478 14.2792 0.992718 44.2764 13.1569 -6.11047 45.4054 13.4037 -6.38646 6.63248 3.30236 -1.26753 52.3753 15.6204 -6.40192 15.3504 5.19879 -0.333553 12.9351 7.01932 -5.55431 21.116 8.14441 -0.317271 22.7006 8.73508 -0.460742 -8.9557 3.95864 -6.76162 25.5475 9.66341 0.0104723 15.2476 5.79321 0.529014 9.91522 -19.9007 48.0804 1.41321 -0.442817 -1.52297 -7.19736 14.537 5.60455 -43.39 -8.29971 -6.15553 169.677 25.273 -152.267 -2.43106 -6.37315 45.8126 -12.5289 28.3926 -7.40684 50.4873 -13.9883 24.3775 179.539 26.8813 178.361 8.11909 -12.2171 -41.9331 10.8626 56.0509 16.8757 
21.5167 -65.4844 -49.2891 0 0 -0 12.9535 10.3644 -55.0543 -0.146435 -2.88381 1.50808 -0.217122 -5.77046 3.0145 -0.217123 -5.77046 3.01453 0.117126 0.208312 -4.33918 6.84681 -0.335437 -2.31079 2.95763 -1.99615 -30.3079 43.0062 -43.5696 22.6904 -4.77635 -59.8793 15.6862 5.97194 7.98544 22.6765 -3.03457 13.5333 -2.18206 -35.3167 20.4568 4.66825 -36.3891 20.9688 4.99578 -1.00373 1.77405 1.17353 -42.7841 24.7472 5.54517 -8.91321 5.62882 -0.442311 -6.58204 6.72806 5.06494 -13.8828 9.68236 -0.672501 -15.2683 10.6411 -0.610634 13.8075 -0.976055 8.79337 -17.7367 12.2751 -1.06118 -8.75063 6.03023 -1.00086 -11.5752 -16.7454 -49.4479 -4.53233 0.274117 0.312993 8.53292 10.6973 -3.07912 -7.72479 -1.34512 37.6886 -87.0788 -41.9127 -54.7889 36.6306 -47.7304 9.45176 -32.6409 17.5737 -44.0078 11.6478 14.2792 0.992725 44.2764 13.1569 -6.11048 45.4054 13.4037 -6.38646 6.63249 3.30237 -1.26752 52.3752 15.6204 -6.40191 15.3503 5.19879 -0.33355 12.9351 7.01934 -5.5543 21.116 8.14439 -0.317265 22.7006 8.73509 -0.460732 -8.95568 3.95865 -6.76163 25.5475 9.66342 0.0104808 15.2476 5.79319 0.529011 9.91521 -19.9007 48.0804 1.4132 -0.442836 -1.52295 -7.19736 14.537 5.60456 -43.1441 -8.44098 -6.301 169.634 25.3152 -152.134 -2.30115 -6.76183 45.3327 -12.8636 28.5872 -7.42364 50.3937 -14.3205 24.4899 179.56 26.7787 178.208 7.94218 -12.2769 -41.6599 10.8529 55.9427 16.6816 
21.517 -65.3663 -49.3206 0 0 -0 13.1127 10.6269 -54.9505 -0.122369 -2.98952 1.48294 -0.167447 -5.9812 2.96557 -0.167446 -5.98121 2.96556 0.0542967 -0.446939 -4.21519 6.98391 -0.064005 -2.36346 2.95231 -1.96692 -30.2939 42.3786 -43.0176 22.2258 -5.10919 -60.7541 15.6299 6.27761 8.25355 22.324 -3.03454 13.5333 -2.18209 -35.3167 20.4567 4.66825 -36.3891 20.9689 4.99577 -1.0037 1.77404 1.1735 -42.7842 24.7472 5.54519 -8.91321 5.6288 -0.442302 -6.58201 6.72805 5.06494 -13.8828 9.68234 -0.672497 -15.2683 10.6411 -0.610616 13.8075 -0.976077 8.79337 -17.7367 12.2751 -1.06116 -8.75063 6.03023 -1.00084 -11.5752 -16.7454 -49.4479 -4.53235 0.274123 0.312994 8.53294 10.6972 -3.07913 -7.65537 -1.33414 37.4315 -86.4415 -41.9519 -54.3189 37.377 -48.2106 10.3158 -32.8755 17.9221 -43.9667 11.6478 14.2792 0.992729 44.2764 13.1569 -6.11048 45.4053 13.4037 -6.38646 6.63248 3.30236 -1.26752 52.3752 15.6204 -6.40194 15.3503 5.19879 -0.333544 12.9351 7.01933 -5.55429 21.116 8.1444 -0.317277 22.7006 8.73506 -0.460741 -8.95571 3.95865 -6.76163 25.5475 9.6634 0.0104674 15.2476 5.79319 0.529021 9.91521 -19.9007 48.0804 1.41322 -0.442852 -1.52293 -7.19737 14.537 5.60455 -42.6905 -8.65962 -6.60753 169.545 25.4834 -152.044 -1.97211 -7.08254 44.7242 -13.3649 28.7799 -7.48217 50.2529 -14.7303 24.6565 179.577 26.7943 178.078 7.69899 -12.3506 -41.252 10.9032 55.7077 16.5677 
21.4115 -65.1387 -49.2758 0 0 -0 13.232 11.0641 -54.7034 -0.0558134 -3.10303 1.43585 -0.0337072 -6.20649 2.87501 -0.0337047 -6.20651 2.87502 -0.0290923 -1.33336 -4.13937 7.13317 0.152072 -2.43683 2.94883 -1.93657 -30.3133 41.4789 -42.1329 21.6919 -6.04477 -62.254 15.4524 6.93739 8.5952 21.4578 -3.03455 13.5333 -2.18207 -35.3167 20.4568 4.66824 -36.3891 20.9689 4.99579 -1.00371 1.77405 1.1735 -42.7842 24.7472 5.54522 -8.91324 5.62882 -0.442274 -6.58202 6.72806 5.06493 -13.8829 9.68233 -0.672479 -15.2683 10.6412 -0.610593 13.8075 -0.976053 8.79335 -17.7367 12.2751 -1.06117 -8.75065 6.03025 -1.00084 -11.5752 -16.7453 -49.448 -4.53236 0.27415 0.313004 8.53296 10.6972 -3.07913 -7.39461 -1.33834 36.9892 -85.7909 -41.891 -53.5378 38.8002 -49.0323 11.8889 -33.2988 18.5954 -44.006 11.6478 14.2792 0.99274 44.2764 13.1569 -6.11049 45.4054 13.4037 -6.38647 6.63249 3.30236 -1.2675 52.3753 15.6204 -6.4019 15.3503 5.19879 -0.333546 12.9351 7.01933 -5.55428 21.116 8.1444 -0.317269 22.7006 8.7351 -0.460745 -8.95568 3.95864 -6.7616 25.5475 9.6634 0.0104842 15.2476 5.7932 0.52903 9.91523 -19.9007 48.0804 1.4132 -0.442789 -1.52296 -7.19738 14.537 5.60456 -41.922 -8.90723 -7.12903 169.347 25.9105 -151.929 -1.74423 -7.43784 43.8486 -13.6428 28.6829 -7.45247 50.15 -15.3229 24.8588 179.594 27.0126 177.974 7.52775 -12.3241 -40.7592 10.7826 55.3871 16.2255 
21.2153 -64.8365 -49.1817 0 0 -0 13.3005 11.5215 -54.5808 0.027723 -3.23263 1.40108 0.135095 -6.46358 2.81044 0.135098 -6.46358 2.81042 -0.110184 -1.86305 -4.02805 7.21824 0.127183 -2.34743 3.00172 -1.9786 -30.2638 40.1647 -40.9119 20.9574 -7.17161 -64.0914 15.4043 7.69798 8.93376 20.1656 -3.03457 13.5333 -2.18204 -35.3167 20.4568 4.66827 -36.3891 20.9689 4.99578 -1.00373 1.77402 1.17352 -42.7841 24.7472 5.54521 -8.91322 5.62882 -0.442281 -6.58205 6.72804 5.06499 -13.8828 9.68238 -0.672484 -15.2683 10.6412 -0.610583 13.8075 -0.976076 8.79338 -17.7367 12.2751 -1.06117 -8.75062 6.03027 -1.00083 -11.5753 -16.7453 -49.4481 -4.53233 0.274129 0.313024 8.53293 10.6973 -3.07911 -7.22145 -1.34895 36.4192 -84.713 -42.1044 -52.6188 40.3961 -49.8943 13.5098 -33.8993 19.1403 -43.7088 11.6477 14.2793 0.992798 44.2764 13.1569 -6.11047 45.4053 13.4037 -6.38642 6.63249 3.30238 -1.26751 52.3752 15.6204 -6.40188 15.3503 5.19877 -0.333547 12.9351 7.01935 -5.5543 21.116 8.14439 -0.31726 22.7006 8.73509 -0.46073 -8.9557 3.95865 -6.76157 25.5475 9.66341 0.0104896 15.2476 5.7932 0.529058 9.91523 -19.9007 48.0804 1.41319 -0.44282 -1.52291 -7.19738 14.537 5.60457 -40.9695 -9.30755 -7.6784 169.093 26.4935 -151.888 -1.30592 -7.69247 42.776 -14.2243 28.7959 -7.47606 50.0058 -15.7486 25.1712 179.607 27.3823 177.922 7.24697 -12.2535 -40.053 10.9567 54.7863 16.0258 
20.8976 -64.4211 -49.0493 0 0 -0 13.2222 12.1115 -54.4582 0.162772 -3.37617 1.3579 0.406867 -6.74747 2.73241 0.406869 -6.74749 2.73242 -0.186397 -2.37571 -3.79141 7.27187 0.335257 -2.30343 3.07537 -2.04497 -30.2026 38.631 -39.2689 20.1017 -8.95293 -66.2784 14.8429 8.68283 9.20382 18.7898 -3.03458 13.5333 -2.182 -35.3167 20.4568 4.66824 -36.3891 20.9689 4.99578 -1.00373 1.77404 1.17352 -42.7842 24.7472 5.54522 -8.91322 5.62882 -0.442262 -6.58205 6.72805 5.065 -13.8829 9.68236 -0.672416 -15.2683 10.6412 -0.610539 13.8075 -0.976073 8.79335 -17.7367 12.2751 -1.06116 -8.75062 6.03032 -1.00078 -11.5752 -16.7454 -49.4479 -4.53235 0.274146 0.313053 8.53293 10.6973 -3.07912 -7.02311 -1.36457 35.7853 -83.2226 -42.3564 -51.2753 42.314 -50.9842 15.5478 -34.6164 19.7896 -43.35 11.6477 14.2793 0.992892 44.2764 13.1569 -6.11047 45.4054 13.4037 -6.38641 6.6325 3.30239 -1.26747 52.3752 15.6204 -6.40187 15.3503 5.19879 -0.333534 12.9351 7.01936 -5.55427 21.116 8.14439 -0.317254 22.7006 8.73508 -0.460695 -8.95569 3.95866 -6.76147 25.5475 9.66341 0.0104935 15.2476 5.79315 0.529099 9.91526 -19.9007 48.0804 1.4132 -0.442808 -1.52291 -7.19738 14.537 5.60457 -39.7152 -9.81096 -8.26614 168.747 27.3375 -151.891 -0.830953 -7.66361 41.6994 -14.7433 28.6173 -7.53675 49.9283 -16.1173 25.4862 179.615 27.9761 177.9 6.98357 -12.1309 -39.2149 11.0934 54.0577 15.8055 
20.4619 -63.9089 -48.8369 0 0 -0 13.0512 12.712 -54.2043 0.299076 -3.49682 1.30575 0.679999 -6.98584 2.63706 0.68 -6.98586 2.63707 -0.263174 -2.7995 -3.68852 7.52984 0.336853 -2.19271 3.20138 -2.17036 -30.1259 36.8261 -37.5921 19.1701 -11.2994 -68.5181 13.8642 9.74547 9.32832 17.0751 -3.03459 13.5332 -2.18196 -35.3167 20.4568 4.66826 -36.3891 20.9689 4.9958 -1.0037 1.77403 1.17352 -42.7842 24.7472 5.54524 -8.91322 5.62884 -0.44224 -6.58205 6.72801 5.06507 -13.8828 9.68237 -0.672333 -15.2683 10.6412 -0.610471 13.8075 -0.9761 8.79338 -17.7367 12.2751 -1.06117 -8.75059 6.03035 -1.0007 -11.5752 -16.7454 -49.4479 -4.53237 0.274131 0.313097 8.53293 10.6973 -3.07908 -6.63341 -1.38424 34.9039 -81.8376 -42.6008 -50.0077 44.972 -51.8742 17.9041 -35.6148 20.2476 -42.7046 11.6478 14.2792 0.992727 44.2764 13.1569 -6.11049 45.4053 13.4038 -6.38637 6.63247 3.3024 -1.26741 52.3752 15.6204 -6.40182 15.3503 5.19877 -0.33353 12.9351 7.01938 -5.55424 21.116 8.14441 -0.31724 22.7006 8.73507 -0.460649 -8.9557 3.95866 -6.76164 25.5475 9.66343 0.0105178 15.2476 5.79308 0.529194 9.91525 -19.9007 48.0804 1.41316 -0.442855 -1.52285 -7.19739 14.537 5.60458 -38.3114 -10.1519 -8.92276 168.285 28.4598 -151.873 -0.488677 -7.65452 40.5622 -14.9291 28.4245 -7.52007 49.7456 -16.4672 25.7462 179.617 28.7865 177.961 6.62173 -11.9638 -38.2839 11.1967 53.2096 15.3389 
19.8916 -63.3172 -48.5704 0 0 -0 12.5401 13.293 -53.8651 0.477172 -3.59982 1.24978 1.03614 -7.1882 2.53718 1.03614 -7.18823 2.53718 -0.329521 -3.03627 -3.6012 7.7395 0.543969 -2.10056 3.32656 -2.2883 -30.0865 34.9266 -35.6366 18.3216 -15.1429 -70.6448 11.4296 10.9467 9.20803 15.3791 -3.03464 13.5332 -2.18183 -35.3167 20.4567 4.66831 -36.3891 20.9688 4.9958 -1.00372 1.774 1.17352 -42.7842 24.7472 5.54531 -8.91318 5.62885 -0.442187 -6.58201 6.72806 5.06493 -13.8828 9.68231 -0.67252 -15.2683 10.6411 -0.610597 13.8075 -0.976093 8.79336 -17.7367 12.2751 -1.06114 -8.75066 6.03019 -1.00086 -11.5752 -16.7454 -49.4479 -4.53242 0.274144 0.313179 8.53289 10.6973 -3.079 -6.4228 -1.41458 34.0074 -79.9741 -42.6723 -48.1973 47.8787 -52.9194 20.5992 -36.7084 20.7406 -42.2423 11.6478 14.2792 0.992707 44.2764 13.1569 -6.11048 45.4054 13.4038 -6.38628 6.63247 3.30241 -1.2673 52.3752 15.6205 -6.40172 15.3503 5.19877 -0.333498 12.9351 7.01938 -5.55417 21.116 8.1444 -0.317239 22.7006 8.73502 -0.460536 -8.95569 3.95866 -6.76165 25.5475 9.66341 0.0105501 15.2476 5.79319 0.529012 9.91525 -19.9007 48.0805 1.41313 -0.442862 -1.52277 -7.19739 14.5369 5.6046 -36.5265 -10.2941 -9.49943 167.735 29.8007 -151.891 -0.0772467 -7.60429 39.1549 -15.2553 28.1804 -7.49811 49.598 -16.4919 25.8424 179.619 29.7875 178.029 6.30575 -11.9703 -37.0414 11.4441 52.2992 15.1818 
